# This file uses centimeters as units for non-parametric coordinates.

mtllib RGBS Window Final.mtl
g default
v -0.784489 -0.026538 0.631900
v 0.866511 -0.026538 0.631900
v -0.784489 1.624462 0.631900
v 0.866511 1.624462 0.631900
v -0.784489 1.624462 -0.368100
v 0.866511 1.624462 -0.368100
v -0.784489 -0.026538 -0.368100
v 0.866511 -0.026538 -0.368100
vt 0.223922 0.227219
vt 0.771224 0.227219
vt 0.771224 0.774522
vt 0.223922 0.774522
vt 0.001983 0.774522
vt 0.001983 0.227219
vt 0.771225 0.998008
vt 0.223922 0.998008
vt 0.223922 0.001992
vt 0.771224 0.001992
vt 0.993415 0.227219
vt 0.993415 0.774522
vn 0.000000 0.000000 1.000000
vn 0.000000 0.000000 1.000000
vn 0.000000 0.000000 1.000000
vn 0.000000 0.000000 1.000000
vn 0.000000 1.000000 0.000000
vn 0.000000 1.000000 0.000000
vn 0.000000 1.000000 0.000000
vn 0.000000 1.000000 0.000000
vn 0.000000 -1.000000 0.000000
vn 0.000000 -1.000000 0.000000
vn 0.000000 -1.000000 0.000000
vn 0.000000 -1.000000 0.000000
vn 1.000000 0.000000 0.000000
vn 1.000000 0.000000 0.000000
vn 1.000000 0.000000 0.000000
vn 1.000000 0.000000 0.000000
vn -1.000000 0.000000 0.000000
vn -1.000000 0.000000 0.000000
vn -1.000000 0.000000 0.000000
vn -1.000000 0.000000 0.000000
s off
g RGBS_Building_Window1
usemtl blinn2SG
f 1/1/1 2/2/2 4/3/3 3/4/4
f 3/4/5 4/3/6 6/7/7 5/8/8
f 7/9/9 8/10/10 2/2/11 1/1/12
f 2/2/13 8/11/14 6/12/15 4/3/16
f 7/6/17 1/1/18 3/4/19 5/5/20
